<svg width="28" height="31" viewBox="0 0 28 31" fill="none" xmlns="http://www.w3.org/2000/svg">
<path d="M21.0536 11.4855L15.7596 8.339V4.836L18.376 2.1855L16.2033 0L14.2295 1.9995L12.2557 0L10.0831 2.1855L12.6995 4.836V8.339L8.87432 10.571L5.81421 8.8195L4.92678 5.208L1.98907 6.014L2.7082 8.7575L0 9.486L0.795628 12.4775L4.36066 11.5165L7.42077 13.268V17.7475L4.36066 19.499L0.795628 18.538L0 21.5295L2.7082 22.258L1.98907 24.986L4.94208 25.792L5.89071 22.1805L8.95082 20.429L12.6995 22.661V26.164L10.0831 28.8145L12.2557 31L14.2295 29.0005L16.2033 31L18.3607 28.8145L15.7596 26.164V22.661L21.0536 19.5455M10.4044 13.268L14.2295 11.0205L18.0546 13.268V17.732L14.2295 19.9795L10.4044 17.732M24.9399 17.05V7.75H28V17.05H24.9399ZM24.9399 23.25V20.15H28V23.25H24.9399Z" fill="#057BC4"/>
</svg>
