<svg width="32" height="32" viewBox="0 0 32 32" fill="none" xmlns="http://www.w3.org/2000/svg">
<path d="M25.5789 16.7368V15.2632H28.5263L15.2632 2L2 15.2632H4.94737V25.5789C4.94737 26.3606 5.25789 27.1103 5.81063 27.6631C6.36337 28.2158 7.11305 28.5263 7.89474 28.5263H11.5789" stroke="#057BC4" stroke-width="3" stroke-linecap="round" stroke-linejoin="round"/>
<path d="M10.8418 28.5263V19.6842C10.8418 18.9025 11.1523 18.1528 11.7051 17.6001C12.2578 17.0473 13.0075 16.7368 13.7892 16.7368H16.7365C17.5182 16.7368 18.2679 17.0473 18.8206 17.6001C19.3734 18.1528 19.6839 18.9025 19.6839 19.6842M16.7365 30L21.1576 25.5789L24.105 28.5263L29.9997 22.6316" stroke="#057BC4" stroke-width="3" stroke-linecap="round" stroke-linejoin="round"/>
<path d="M25.5781 22.6316H29.9992V27.0526" stroke="#057BC4" stroke-width="2" stroke-linecap="round" stroke-linejoin="round"/>
</svg>
