<svg width="28" height="32" viewBox="0 0 28 32" fill="none" xmlns="http://www.w3.org/2000/svg">
<path d="M13 22L11.59 23.41L14.17 26H2V8H0V26C0 27.103 0.897 28 2 28H14.17L11.59 30.59L13 32L18 27L13 22Z" fill="#057BC4"/>
<path d="M9 17C9.55228 17 10 16.5523 10 16C10 15.4477 9.55228 15 9 15C8.44772 15 8 15.4477 8 16C8 16.5523 8.44772 17 9 17Z" fill="#057BC4"/>
<path d="M22 20H6C4.897 20 4 19.103 4 18V14C4 12.897 4.897 12 6 12H22C23.103 12 24 12.897 24 14V18C24 19.103 23.103 20 22 20ZM6 14V18H22V14H6Z" fill="#057BC4"/>
<path d="M26 4H13.83L16.41 1.41L15 0L10 5L15 10L16.41 8.59L13.83 6H26V24H28V6C28 4.898 27.103 4 26 4Z" fill="#057BC4"/>
</svg>
